<svg xmlns="http://www.w3.org/2000/svg" class="svg-stars" id="stars30" viewBox="0 0 500 100"><title>stars3.0</title><polygon points="50 7.63 63.44 34.87 93.5 39.23 71.75 60.44 76.88 90.37 50 76.24 23.12 90.37 28.25 60.44 6.5 39.23 36.56 34.87 50 7.63" style="fill:#ffb804"/><polygon points="50.93 74.47 49.07 74.47 25.77 86.72 30.22 60.77 29.65 59 10.8 40.63 36.84 36.84 38.35 35.75 50 12.15 61.65 35.75 63.16 36.84 89.2 40.63 70.35 59 69.78 60.77 74.23 86.72 50.93 74.47" style="fill:#f90"/><polygon points="150 7.63 163.44 34.87 193.5 39.23 171.75 60.44 176.88 90.37 150 76.24 123.12 90.37 128.25 60.44 106.5 39.23 136.56 34.87 150 7.63" style="fill:#ffb804"/><polygon points="150.93 74.47 149.07 74.47 125.77 86.72 130.22 60.77 129.65 59 110.8 40.63 136.84 36.84 138.35 35.75 150 12.15 161.65 35.75 163.16 36.84 189.2 40.63 170.35 59 169.78 60.77 174.23 86.72 150.93 74.47" style="fill:#f90"/><polygon points="250 7.63 263.44 34.87 293.5 39.23 271.75 60.44 276.88 90.37 250 76.24 223.12 90.37 228.25 60.44 206.5 39.23 236.56 34.87 250 7.63" style="fill:#ffb804"/><polygon points="250.93 74.47 249.07 74.47 225.77 86.72 230.22 60.77 229.65 59 210.8 40.63 236.84 36.84 238.35 35.75 250 12.15 261.65 35.75 263.15 36.84 289.2 40.63 270.35 59 269.78 60.77 274.23 86.72 250.93 74.47" style="fill:#f90"/><path d="M493.5,39.23l-30.06-4.37L450,7.63,436.56,34.87,406.5,39.23l21.75,21.2-5.13,29.94L450,76.24l26.88,14.13-5.13-29.94ZM474.23,86.71l-23.3-12.25h-1.86l-23.3,12.25,4.45-25.94L429.65,59,410.8,40.63l26-3.78,1.51-1.09L450,12.15l11.65,23.6,1.51,1.09,26,3.78L470.35,59l-.58,1.77Z" style="fill:#ffb804"/><path d="M393.5,39.23l-30.06-4.37L350,7.63,336.56,34.87,306.5,39.23l21.75,21.2-5.13,29.94L350,76.24l26.88,14.13-5.13-29.94ZM374.23,86.71l-23.3-12.25h-1.86l-23.3,12.25,4.45-25.94L329.65,59,310.8,40.63l26-3.78,1.51-1.09L350,12.15l11.65,23.6,1.51,1.09,26,3.78L370.35,59l-.58,1.77Z" style="fill:#ffb804"/></svg>